<svg viewBox="0 0 36 36" fill="none" xmlns="http://www.w3.org/2000/svg">
<path d="M17.6466 27.2249H27.1566C27.012 27.3534 26.8675 27.4659 26.7229 27.5944L19.8635 32.7349C17.5984 34.4217 13.9036 34.4217 11.6225 32.7349L4.74699 27.5944C3.23695 26.4699 2 23.9799 2 22.1004V10.1968C2 8.23695 3.49398 6.06827 5.3253 5.37751L13.3253 2.37349C14.6426 1.8755 16.8273 1.8755 18.1446 2.37349L26.1285 5.37751C27.6546 5.95582 28.9558 7.56225 29.3574 9.2008H17.6305C17.2771 9.2008 16.9558 9.21687 16.6506 9.21687C13.6787 9.39357 12.9076 10.4699 12.9076 13.8594V22.5823C12.9237 26.2771 13.8715 27.2249 17.6466 27.2249Z" stroke="#8969FC" stroke-width="3" stroke-linecap="round" stroke-linejoin="round"/>
<path d="M12.9219 16.7349H34.1267" stroke="#8969FC" stroke-width="3" stroke-miterlimit="10" stroke-linecap="round" stroke-linejoin="round"/>
<path d="M34.1267 13.8434V22.7591C34.0946 26.3253 33.1146 27.2089 29.4038 27.2089H17.6448C13.8697 27.2089 12.9219 26.2611 12.9219 22.5502V13.8273C12.9219 10.4538 13.693 9.37754 16.6648 9.18477C16.9701 9.18477 17.2914 9.1687 17.6448 9.1687H29.4038C33.1789 9.18477 34.1267 10.1165 34.1267 13.8434Z" stroke="#8969FC" stroke-width="3" stroke-linecap="round" stroke-linejoin="round"/>
<path d="M16.9727 23.2249H19.1092M22.4827 23.2249H27.7357" stroke="#8969FC" stroke-width="3" stroke-miterlimit="10" stroke-linecap="round" stroke-linejoin="round"/>
</svg>
