<svg viewBox="0 0 27 15" fill="none" xmlns="http://www.w3.org/2000/svg">
<path fill-rule="evenodd" clip-rule="evenodd" d="M11.6525 14.4255C12.0206 14.7934 12.5196 15 13.04 15C13.5604 15 14.0594 14.7934 14.4275 14.4255L25.5291 3.32536C25.8866 2.95528 26.0844 2.45963 26.0799 1.94514C26.0755 1.43066 25.8691 0.938519 25.5052 0.574713C25.1413 0.210906 24.6491 0.00454426 24.1346 7.34329e-05C23.62 -0.00439739 23.1243 0.193381 22.7542 0.550811L13.04 10.2637L3.32581 0.550811C2.95568 0.193381 2.45996 -0.00439739 1.94541 7.34329e-05C1.43086 0.00454426 0.938648 0.210906 0.574792 0.574713C0.210935 0.938519 0.0045455 1.43066 7.41863e-05 1.94514C-0.00439713 2.45963 0.193408 2.95528 0.550886 3.32536L11.6525 14.4255Z" fill="currentColor"/>
</svg>
