<svg width="48" height="36" viewBox="0 0 48 36" fill="none" xmlns="http://www.w3.org/2000/svg">
<path d="M43.7785 3.144C46.5251 6.06133 47.9998 9.33333 47.9998 14.6373C47.9998 23.9707 41.4478 32.336 31.9198 36.472L29.5385 32.7973C38.4318 27.9867 40.1705 21.744 40.8638 17.808C39.4318 18.5493 37.5571 18.808 35.7198 18.6373C30.9091 18.192 27.1171 14.2427 27.1171 9.33333C27.1171 6.85798 28.1005 4.48401 29.8508 2.73367C31.6011 0.983331 33.9751 0 36.4505 0C39.3118 0 42.0478 1.30667 43.7785 3.144ZM17.1118 3.144C19.8585 6.06133 21.3331 9.33333 21.3331 14.6373C21.3331 23.9707 14.7811 32.336 5.25312 36.472L2.87179 32.7973C11.7651 27.9867 13.5038 21.744 14.1971 17.808C12.7651 18.5493 10.8905 18.808 9.05312 18.6373C4.24246 18.192 0.453125 14.2427 0.453125 9.33333C0.453125 6.85798 1.43645 4.48401 3.18679 2.73367C4.93713 0.983331 7.3111 0 9.78646 0C12.6478 0 15.3838 1.30667 17.1145 3.144H17.1118Z" fill="#8969FC"/>
</svg>
