<svg viewBox="0 0 35 35" fill="none" xmlns="http://www.w3.org/2000/svg">
<path fill-rule="evenodd" clip-rule="evenodd" d="M16.2078 3.5723C16.7049 3.14727 17.6213 3.13691 18.1469 3.57521L20.572 5.66262L20.574 5.6644C20.9789 6.0147 21.4816 6.27453 21.9429 6.44686C22.405 6.61953 22.9576 6.75373 23.497 6.75373H26.1181C26.924 6.75373 27.5938 7.42353 27.5938 8.2294V10.8505C27.5938 11.3842 27.729 11.9368 27.8997 12.3963C28.0702 12.8551 28.3295 13.3647 28.683 13.7733L28.6849 13.7755L30.7752 16.204L30.7763 16.2053C31.2003 16.7027 31.2102 17.6179 30.7723 18.1431L28.6849 20.5681L28.6828 20.5705C28.3327 20.9753 28.0729 21.4779 27.9006 21.9391C27.728 22.4012 27.5938 22.9538 27.5938 23.4932V26.1142C27.5938 26.9201 26.924 27.5899 26.1181 27.5899H23.497C22.9633 27.5899 22.4107 27.7251 21.9512 27.8958C21.4923 28.0664 20.9827 28.3257 20.574 28.6793L20.572 28.681L18.1435 30.7714L18.142 30.7726C17.6446 31.1964 16.7296 31.2063 16.2045 30.7685L13.7794 28.681L13.7772 28.6791C13.3723 28.3289 12.8697 28.0691 12.4085 27.8968C11.9463 27.7241 11.3937 27.5899 10.8543 27.5899H8.187C7.38112 27.5899 6.71133 26.9201 6.71133 26.1142V23.4778C6.71133 22.943 6.57563 22.3943 6.40798 21.9414C6.23957 21.4865 5.98783 20.9903 5.65444 20.5903L5.65449 20.5902L5.64555 20.5797L3.56891 18.1339L3.56698 18.1316C3.14433 17.626 3.14434 16.7176 3.56702 16.212L5.64555 13.764L5.6456 13.764L5.65444 13.7534C5.98783 13.3533 6.23957 12.8572 6.40798 12.4023C6.57563 11.9494 6.71133 11.4006 6.71133 10.8659V8.21398C6.71133 7.40811 7.38112 6.73832 8.187 6.73832H10.8543C11.3881 6.73832 11.9407 6.60311 12.4002 6.43238C12.8581 6.26223 13.3665 6.00365 13.7747 5.65123L16.2074 3.57266L16.2078 3.5723ZM20.0851 1.2853C18.4515 -0.0915622 15.8878 -0.100816 14.2586 1.29183L14.2582 1.29219L11.8226 3.37326L11.8225 3.37323L11.8146 3.38014C11.7611 3.42653 11.6009 3.52895 11.3552 3.62025C11.1093 3.71163 10.9219 3.73832 10.8543 3.73832H8.187C5.72427 3.73832 3.71133 5.75125 3.71133 8.21398V10.8659C3.71133 10.9324 3.68515 11.116 3.59455 11.3608C3.50624 11.5994 3.40534 11.7647 3.35249 11.8296L1.27724 14.2737L1.27723 14.2737L1.27245 14.2794C-0.0908174 15.9012 -0.0908174 18.4424 1.27245 20.0643L1.27244 20.0643L1.27724 20.0699L3.35246 22.5141C3.40531 22.5789 3.50622 22.7442 3.59455 22.9828C3.68515 23.2276 3.71133 23.4112 3.71133 23.4778V26.1142C3.71133 28.577 5.72427 30.5899 8.187 30.5899H10.8543C10.9316 30.5899 11.1191 30.6176 11.3585 30.707C11.598 30.7965 11.7573 30.8984 11.8146 30.9481L11.8184 30.9514L14.2545 33.0483L14.2663 33.0583C15.9 34.4353 18.4641 34.4445 20.0932 33.0515L20.0969 33.0483L22.5329 30.9514L22.5368 30.9481C22.5903 30.9017 22.7504 30.7993 22.9962 30.708C23.2421 30.6166 23.4295 30.5899 23.497 30.5899H26.1181C28.5808 30.5899 30.5938 28.577 30.5938 26.1142V23.4932C30.5938 23.4159 30.6215 23.2284 30.7109 22.989C30.8004 22.7496 30.9023 22.5902 30.9519 22.5329L30.9553 22.5291L33.0521 20.093L33.0622 20.0812C34.4392 18.4475 34.4483 15.8835 33.0553 14.2543L33.0521 14.2506L30.9553 11.8146L30.9519 11.8107C30.9056 11.7572 30.8031 11.5971 30.7118 11.3514C30.6205 11.1054 30.5938 10.918 30.5938 10.8505V8.2294C30.5938 5.76667 28.5808 3.75373 26.1181 3.75373H23.497C23.4198 3.75373 23.2323 3.72605 22.9929 3.63661C22.7534 3.54713 22.5941 3.44522 22.5368 3.39555L22.5329 3.39224L20.0969 1.29539L20.0851 1.2853ZM23.8033 14.4848C24.3885 13.8984 24.3875 12.9487 23.8011 12.3635C23.2147 11.7783 22.265 11.7793 21.6798 12.3657L15.2958 18.763L12.6418 16.098C12.0572 15.511 11.1075 15.509 10.5205 16.0936C9.9335 16.6781 9.93153 17.6279 10.5161 18.2149L14.2318 21.946C14.5131 22.2285 14.8953 22.3874 15.2939 22.3876C15.6925 22.3878 16.0749 22.2293 16.3564 21.9471L23.8033 14.4848Z" fill=""/>
</svg>
