<svg viewBox="0 0 36 36" fill="none" xmlns="http://www.w3.org/2000/svg">
  <path
    d="M34.0001 18V26C34.0001 30.8 30.8 34 26 34H10C5.20001 34 2 30.8 2 26V18C2 13.648 4.624 10.608 8.70401 10.096C9.12001 10.032 9.55201 10 10 10H26C26.416 10 26.816 10.016 27.2 10.08C31.328 10.56 34.0001 13.616 34.0001 18Z"
    fill="none" stroke-width="3" stroke-linecap="round" stroke-linejoin="round" 
  />
  <path
    d="M34.0015 18.8H29.2015C27.4415 18.8 26.0015 20.24 26.0015 22C26.0015 23.76 27.4415 25.2 29.2015 25.2H34.0015M27.2031 10.0799C26.8191 10.0159 26.4191 9.99995 26.0031 9.99995H10.003C9.55503 9.99995 9.12303 10.0319 8.70703 10.0959C8.93103 9.64795 9.25103 9.23195 9.63503 8.84795L14.835 3.63194C15.8911 2.58646 17.317 2 18.803 2C20.2891 2 21.715 2.58646 22.7711 3.63194L25.5711 6.46394C26.5951 7.47194 27.1391 8.75195 27.2031 10.0799Z"
    fill="none" stroke-width="3" stroke-linecap="round" stroke-linejoin="round"
  />
</svg>