<svg xmlns="http://www.w3.org/2000/svg" viewBox="0 0 24 24">
  <g fill="none" stroke="white" stroke-width="1.5" stroke-linecap="round" stroke-linejoin="round">
    <path d="M5.75 17.167c1.25.75 2.75 1.167 4.25 1.167 4.583 0 8.333-3.75 8.333-8.333S14.583 1.667 10 1.667 1.667 5.417 1.667 10c0 1.5.417 2.917 1.083 4.167l-.716 2.755a.685.685 0 0 0 .272.759c.105.103.236.176.378.213a.708.708 0 0 0 .786-.207L5.75 17.167z"/>
    <path d="M13.75 12.373a.837.837 0 0 1-.354.792c-.184.202-.387.348-.617.442-.225.094-.469.142-.731.142-.383 0-.793-.09-1.226-.273-.457-.198-.89-.448-1.291-.744-.437-.318-.849-.67-1.233-1.05-.38-.38-.73-.79-1.048-1.223a8.883 8.883 0 0 1-1.09-1.905c-.18-.43-.27-.838-.27-1.227 0-.255.045-.498.135-.723a1.334 1.334 0 0 1 .432-.577c.24-.237.503-.353.782-.353.105 0 .21.022.304.067.098.045.184.112.252.208l.872 1.227c.067.093.117.18.15.262a.586.586 0 0 1-.144.656l-.275.297a.584.584 0 0 0-.162.307.569.569 0 0 0 .012.297c.038.075.077.135.137.223.067.124.183.285.348.48.167.193.347.393.54.592.203.199.398.382.597.55a7.193 7.193 0 0 0 .485.358c.03.01.06.02.092.02a.582.582 0 0 0 .418-.191l.285-.28c.095-.093.18-.183.266-.264.08-.053.173-.097.277-.103a.591.591 0 0 1 .487.125l1.243.882a.653.653 0 0 1 .261.297z"/>
  </g>
</svg>
